<svg xmlns="http://www.w3.org/2000/svg" viewBox="0 0 1280 720" width="1280" height="720">
  <defs>
    <linearGradient id="bg" x1="0" y1="0" x2="1" y2="1">
      <stop offset="0" stop-color="#131316"/>
      <stop offset="1" stop-color="#0a0a0b"/>
    </linearGradient>
  </defs>
  <rect width="1280" height="720" fill="url(#bg)"/>
  <circle cx="1060" cy="140" r="240" fill="#ff5a36" opacity="0.16"/>
  <g stroke="#27272a" stroke-width="1">
    <line x1="0" y1="540" x2="1280" y2="540"/>
    <line x1="0" y1="420" x2="1280" y2="420"/>
    <line x1="0" y1="300" x2="1280" y2="300"/>
  </g>
  <g stroke="#ff5a36" stroke-width="6" stroke-linecap="round">
    <line x1="200" y1="380" x2="200" y2="240"/>
    <line x1="320" y1="420" x2="320" y2="300"/>
    <line x1="440" y1="360" x2="440" y2="200"/>
    <line x1="560" y1="440" x2="560" y2="320"/>
    <line x1="680" y1="380" x2="680" y2="240"/>
    <line x1="800" y1="320" x2="800" y2="180"/>
    <line x1="920" y1="400" x2="920" y2="260"/>
    <line x1="1040" y1="340" x2="1040" y2="200"/>
  </g>
  <g fill="#ff5a36">
    <rect x="176" y="280" width="48" height="80" rx="6" opacity="0.9"/>
    <rect x="296" y="340" width="48" height="60" rx="6" opacity="0.6"/>
    <rect x="416" y="240" width="48" height="90" rx="6" opacity="0.9"/>
    <rect x="536" y="360" width="48" height="60" rx="6" opacity="0.5"/>
    <rect x="656" y="280" width="48" height="80" rx="6" opacity="0.85"/>
    <rect x="776" y="220" width="48" height="80" rx="6" opacity="0.65"/>
    <rect x="896" y="300" width="48" height="80" rx="6" opacity="0.9"/>
    <rect x="1016" y="240" width="48" height="80" rx="6" opacity="0.55"/>
  </g>
  <polyline points="200,460 320,440 440,470 560,430 680,450 800,410 920,430 1040,390"
    fill="none" stroke="#f4f4f5" stroke-width="6" stroke-linecap="round" stroke-linejoin="round" opacity="0.9"/>
  <text x="140" y="640" fill="#f4f4f5" font-family="ui-sans-serif, system-ui, sans-serif" font-size="56" font-weight="600" letter-spacing="1">Algo Trader</text>
</svg>
