<svg xmlns="http://www.w3.org/2000/svg" viewBox="0 0 1280 720" width="1280" height="720">
  <defs>
    <linearGradient id="bg" x1="0" y1="0" x2="1" y2="1">
      <stop offset="0" stop-color="#131316"/>
      <stop offset="1" stop-color="#0a0a0b"/>
    </linearGradient>
  </defs>
  <rect width="1280" height="720" fill="url(#bg)"/>
  <circle cx="1060" cy="140" r="240" fill="#ff5a36" opacity="0.16"/>
  <g stroke="#27272a" stroke-width="1">
    <line x1="0" y1="540" x2="1280" y2="540"/>
    <line x1="0" y1="420" x2="1280" y2="420"/>
    <line x1="0" y1="300" x2="1280" y2="300"/>
  </g>
  <path d="M 480 240 h 320 l 40 240 h -400 Z" fill="#1c1c20" stroke="#3f3f46" stroke-width="3"/>
  <path d="M 540 240 a 100 90 0 0 1 200 0" fill="none" stroke="#ff5a36" stroke-width="14" stroke-linecap="round"/>
  <circle cx="560" cy="530" r="34" fill="#1c1c20" stroke="#ff5a36" stroke-width="10"/>
  <circle cx="740" cy="530" r="34" fill="#1c1c20" stroke="#ff5a36" stroke-width="10"/>
  <g fill="#ff5a36">
    <rect x="540" y="310" width="100" height="70" rx="10" opacity="0.85"/>
    <rect x="660" y="310" width="100" height="70" rx="10" opacity="0.55"/>
    <rect x="540" y="400" width="100" height="70" rx="10" opacity="0.4"/>
  </g>
  <g stroke="#27272a" stroke-width="3">
    <rect x="160" y="300" width="140" height="180" rx="14" fill="#1c1c20"/>
    <rect x="980" y="300" width="140" height="180" rx="14" fill="#1c1c20"/>
  </g>
  <g stroke="#3f3f46" stroke-width="6" stroke-linecap="round">
    <line x1="190" y1="340" x2="270" y2="340"/>
    <line x1="190" y1="380" x2="270" y2="380"/>
    <line x1="1010" y1="340" x2="1090" y2="340"/>
    <line x1="1010" y1="380" x2="1090" y2="380"/>
  </g>
  <text x="140" y="640" fill="#f4f4f5" font-family="ui-sans-serif, system-ui, sans-serif" font-size="56" font-weight="600" letter-spacing="1">Napuf</text>
</svg>
